<?xml version="1.0" encoding="UTF-8" standalone="no"?>
<svg
   xmlns:dc="http://purl.org/dc/elements/1.1/"
   xmlns:cc="http://creativecommons.org/ns#"
   xmlns:rdf="http://www.w3.org/1999/02/22-rdf-syntax-ns#"
   xmlns:svg="http://www.w3.org/2000/svg"
   xmlns="http://www.w3.org/2000/svg"
   xmlns:sodipodi="http://sodipodi.sourceforge.net/DTD/sodipodi-0.dtd"
   xmlns:inkscape="http://www.inkscape.org/namespaces/inkscape"
   height="512"
   width="512"
   version="1.1"
   id="svg4529"
   sodipodi:docname="github.svg"
   inkscape:version="0.92.2 (5c3e80d, 2017-08-06)">
  <metadata
     id="metadata4535">
    <rdf:RDF>
      <cc:Work
         rdf:about="">
        <dc:format>image/svg+xml</dc:format>
        <dc:type
           rdf:resource="http://purl.org/dc/dcmitype/StillImage" />
        <dc:title />
      </cc:Work>
    </rdf:RDF>
  </metadata>
  <defs
     id="defs4533" />
  <sodipodi:namedview
     pagecolor="#ffffff"
     bordercolor="#666666"
     borderopacity="1"
     objecttolerance="10"
     gridtolerance="10"
     guidetolerance="10"
     inkscape:pageopacity="0"
     inkscape:pageshadow="2"
     inkscape:window-width="1920"
     inkscape:window-height="1017"
     id="namedview4531"
     showgrid="false"
     inkscape:zoom="1.3037281"
     inkscape:cx="294.64309"
     inkscape:cy="327.84253"
     inkscape:window-x="-8"
     inkscape:window-y="-8"
     inkscape:window-maximized="1"
     inkscape:current-layer="svg4529" />
  <path
     d="m 256,5.37584 c -141.375,0 -256,114.625 -256,256 0,113.125 73.344,209.0625 175.078,242.906 12.797,2.344 17.469,-5.5625 17.469,-12.3125 0,-6.094 -0.2345,-26.281 -0.3595,-47.656 -71.1875,15.4685 -86.2345,-30.1875 -86.2345,-30.1875 -11.656,-29.5625 -28.422,-37.4375 -28.422,-37.4375 -23.2655,-15.875 1.765,-15.5625 1.765,-15.5625 25.703,1.781 39.235,26.375 39.235,26.375 22.844,39.125 59.9375,27.8125 74.5,21.25 2.327,-16.5 8.952,-27.8125 16.25,-34.1875 -56.828,-6.4685 -116.609,-28.4375 -116.609,-126.5315 0,-27.969 9.9845,-50.781 26.328,-68.703 -2.6095,-6.5 -11.422,-32.547 2.531,-67.781 0,0 21.469,-6.875 70.406,26.25 20.406,-5.703 42.297,-8.5155 64.0625,-8.6095 21.75,0.094 43.656,2.9375 64.094,8.6405 48.844,-33.156 70.344,-26.25 70.344,-26.25 14,35.2655 5.1875,61.281 2.5625,67.75 16.406,17.922 26.3125,40.7345 26.3125,68.703 0,98.344 -59.875,120 -116.906,126.344 9.219,7.9375 17.375,23.5 17.375,47.375 0,34.219 -0.344,61.8125 -0.344,70.25 0,6.8125 4.656,14.781 17.625,12.281 C 438.719,470.37584 512,374.43834 512,261.37584 c 0,-141.375 -114.625,-256 -256,-256 z"
     id="path4527"
     inkscape:connector-curvature="0"
     style="stroke-width:0.5;stroke:#000000;stroke-opacity:1;fill:none" />
</svg>
